HIERARCHY
ROOT SpineBase
{
  OFFSET 0.000000 0.000000 0.000000
  CHANNELS 6 Xposition Yposition Zposition Zrotation Xrotation Yrotation
  JOINT SpineMid
  {
    OFFSET -0.000000 27.647864 0.000000
    CHANNELS 3 Zrotation Xrotation Yrotation
    JOINT SpineShoulder
    {
      OFFSET 0.138147 20.818823 -0.764962
      CHANNELS 3 Zrotation Xrotation Yrotation
      JOINT Neck
      {
        OFFSET 0.091950 7.003554 -0.545464
        CHANNELS 3 Zrotation Xrotation Yrotation
        JOINT Head
        {
          OFFSET 3.967316 13.434777 0.574799
          CHANNELS 3 Zrotation Xrotation Yrotation
          End Site
          {
            OFFSET 0 0 0
          }
        }
      }
      JOINT ShoulderLeft
      {
        OFFSET -8.911129 1.629401 -11.250050
        CHANNELS 3 Zrotation Xrotation Yrotation
        JOINT ElbowLeft
        {
          OFFSET -1.261421 -15.479265 -10.830457
          CHANNELS 3 Zrotation Xrotation Yrotation
          JOINT WristLeft
          {
            OFFSET 15.820173 -17.043429 -13.245360
            CHANNELS 3 Zrotation Xrotation Yrotation
            JOINT HandLeft
            {
              OFFSET 3.129894 -3.220827 -5.769531
              CHANNELS 3 Zrotation Xrotation Yrotation
              JOINT HandTipLeft
              {
                OFFSET 3.951519 -3.361687 -4.726001
                CHANNELS 3 Zrotation Xrotation Yrotation
                End Site
                {
                  OFFSET 0 0 0
                }
              }
              JOINT ThumbLeft
              {
                OFFSET -2.228729 0.656601 -3.593756
                CHANNELS 3 Zrotation Xrotation Yrotation
                End Site
                {
                  OFFSET 0 0 0
                }
              }
            }
          }
        }
      }
      JOINT ShoulderRight
      {
        OFFSET 13.657998 -4.239714 9.821064
        CHANNELS 3 Zrotation Xrotation Yrotation
        JOINT ElbowRight
        {
          OFFSET 8.808801 -22.517915 -2.680454
          CHANNELS 3 Zrotation Xrotation Yrotation
          JOINT WristRight
          {
            OFFSET 10.966996 -10.047189 -14.698551
            CHANNELS 3 Zrotation Xrotation Yrotation
            JOINT HandRight
            {
              OFFSET -1.264742 -2.393012 -2.971223
              CHANNELS 3 Zrotation Xrotation Yrotation
              JOINT HandTipRight
              {
                OFFSET 1.745993 -4.095876 -4.617495
                CHANNELS 3 Zrotation Xrotation Yrotation
                End Site
                {
                  OFFSET 0 0 0
                }
              }
              JOINT ThumbRight
              {
                OFFSET -3.838581 -0.037378 -1.209661
                CHANNELS 3 Zrotation Xrotation Yrotation
                End Site
                {
                  OFFSET 0 0 0
                }
              }
            }
          }
        }
      }
    }
  }
  JOINT HipLeft
  {
    OFFSET -4.764687 2.303284 -7.792588
    CHANNELS 3 Zrotation Xrotation Yrotation
    JOINT KneeLeft
    {
      OFFSET 15.200122 8.540485 -30.882519
      CHANNELS 3 Zrotation Xrotation Yrotation
      JOINT AnkleLeft
      {
        OFFSET 9.428530 -31.972476 5.171659
        CHANNELS 3 Zrotation Xrotation Yrotation
        JOINT FootLeft
        {
          OFFSET -0.850626 -6.543537 -3.279861
          CHANNELS 3 Zrotation Xrotation Yrotation
          End Site
          {
            OFFSET 0 0 0
          }
        }
      }
    }
  }
  JOINT HipRight
  {
    OFFSET 5.608289 1.031491 2.168136
    CHANNELS 3 Zrotation Xrotation Yrotation
    JOINT KneeRight
    {
      OFFSET 29.771271 4.980242 -11.068658
      CHANNELS 3 Zrotation Xrotation Yrotation
      JOINT AnkleRight
      {
        OFFSET -3.157407 -30.688357 -12.018426
        CHANNELS 3 Zrotation Xrotation Yrotation
        JOINT FootRight
        {
          OFFSET 11.139484 -2.509051 -10.187603
          CHANNELS 3 Zrotation Xrotation Yrotation
          End Site
          {
            OFFSET 0 0 0
          }
        }
      }
    }
  }
}
MOTION
Frames: 8
Frame Time: 0.033333
-48.900397 28.349318 328.595464 0.000000 0.000000 -43.838525 -0.000000 0.000000 43.838525 -0.000000 0.000000 0.000000 -0.000000 0.000000 0.000000 0.000000 0.000000 0.000000 -0.000000 0.000000 0.000000 -0.000000 0.000000 0.000000 -0.000000 0.000000 0.000000 -0.000000 0.000000 0.000000 0.000000 0.000000 0.000000 0.000000 0.000000 0.000000 -0.000000 0.000000 0.000000 -0.000000 0.000000 0.000000 -0.000000 0.000000 0.000000 -0.000000 0.000000 0.000000 0.000000 0.000000 0.000000 0.000000 0.000000 0.000000 -0.000000 0.000000 43.838525 -0.000000 0.000000 0.000000 -0.000000 0.000000 0.000000 0.000000 0.000000 0.000000 -0.000000 0.000000 43.838525 -0.000000 0.000000 0.000000 -0.000000 0.000000 0.000000 0.000000 0.000000 0.000000
-48.916512 28.343145 328.508672 -0.062598 -0.133773 -43.870231 -0.047581 0.139821 43.870216 -0.000000 0.000000 0.000000 -0.000000 0.000000 0.000000 0.000000 0.000000 0.000000 -0.064043 -1.387306 0.158427 0.411826 2.184882 0.301450 -0.326434 -1.505777 -1.221172 -0.036743 0.709255 0.747222 0.000000 0.000000 0.000000 0.000000 0.000000 0.000000 -0.000000 0.000000 0.000000 -0.000000 0.000000 0.000000 -0.618372 -1.091804 1.351020 0.644054 1.076855 -1.362965 0.000000 0.000000 0.000000 0.000000 0.000000 0.000000 -0.047581 0.139821 43.870216 -0.000000 0.000000 0.000000 14.030831 15.650212 -10.468818 0.000000 0.000000 0.000000 -0.047581 0.139821 43.870216 -0.000000 0.000000 0.000000 -0.880841 2.086488 12.317157 0.000000 0.000000 0.000000
-48.930070 28.336905 328.433202 -0.123049 -0.246067 -43.875261 -0.081847 0.262662 43.875185 -0.000000 0.000000 0.000000 -0.307506 -1.344424 0.406458 0.000000 0.000000 0.000000 -0.131327 -2.552609 0.301684 0.814771 4.093117 0.560279 -0.637302 -2.824163 -2.315599 -0.099260 1.286860 1.402399 0.000000 0.000000 0.000000 0.000000 0.000000 0.000000 0.663623 0.657195 0.173777 -1.372470 -1.014638 0.452914 -0.388669 -1.651844 1.783718 1.815113 2.053022 -3.168618 0.000000 0.000000 0.000000 0.000000 0.000000 0.000000 -0.081847 0.262662 43.875185 -0.000000 0.000000 0.000000 27.029539 24.997071 -21.248780 0.000000 0.000000 0.000000 -0.081847 0.262662 43.875185 -0.000000 0.000000 0.000000 -2.381162 4.140936 26.225403 0.000000 0.000000 0.000000
-48.941072 28.330601 328.369052 -0.181359 -0.336876 -43.853463 -0.102613 0.368574 43.853260 -0.000000 0.000000 0.000000 -0.405891 -1.974054 0.593184 0.000000 0.000000 0.000000 -0.203344 -3.517840 0.432011 1.205743 5.737728 0.775012 -0.918916 -3.940473 -3.270530 -0.184145 1.725438 1.959494 0.000000 0.000000 0.000000 0.000000 0.000000 0.000000 0.896154 0.882675 0.230803 -1.869921 -1.364737 0.631108 -0.430585 -2.240109 2.292906 2.422704 2.787221 -4.220897 0.000000 0.000000 0.000000 0.000000 0.000000 0.000000 0.191309 0.243172 44.820183 -0.120085 0.296130 -0.968182 36.896513 29.543169 -29.774391 0.000000 0.000000 0.000000 -0.102613 0.368574 43.853260 -0.000000 0.000000 0.000000 -4.186047 5.665850 39.204178 0.000000 0.000000 0.000000
-48.949517 28.324230 328.316223 -0.237531 -0.406189 -43.804677 -0.109737 0.457567 43.804273 -0.000000 0.000000 0.000000 -0.467521 -2.573850 0.769492 0.000000 0.000000 0.000000 -0.281412 -4.300449 0.551313 1.581864 7.128028 0.944485 -1.158492 -4.841986 -4.074023 0.189750 2.705570 2.463880 0.000000 0.000000 0.000000 0.000000 0.000000 0.000000 1.064833 1.041175 0.269604 -2.244426 -1.612559 0.781572 -0.355600 -2.625429 2.501434 2.786917 3.308649 -4.851559 0.000000 0.000000 0.000000 0.000000 0.000000 0.000000 0.256293 0.299321 45.004090 -0.146888 0.370727 -1.201759 43.710970 31.621924 -35.746791 0.000000 0.000000 0.000000 -0.109737 0.457567 43.804273 -0.791797 -0.071709 0.316829 -4.910144 6.607295 48.615033 0.000000 0.000000 0.000000
-48.955406 28.317795 328.274715 -0.291569 -0.453993 -43.728735 -0.103124 0.529609 43.728056 -0.000000 0.000000 0.000000 -0.492605 -3.142889 0.935786 0.000000 0.000000 0.000000 -0.366769 -4.913920 0.661241 1.940565 8.270381 1.067954 -1.344757 -5.517990 -4.715452 0.061711 3.199247 3.188585 0.000000 0.000000 0.000000 0.000000 0.000000 0.000000 1.170880 1.133646 0.291013 -2.497352 -1.759279 0.906443 -0.156824 -2.786531 2.387683 2.887111 3.607310 -5.029129 0.000000 0.000000 0.000000 0.000000 0.000000 0.000000 0.321899 0.342551 45.116266 -0.167372 0.433142 -1.390811 48.224812 32.536543 -39.707805 0.000000 0.000000 0.000000 -0.103124 0.529609 43.728056 -0.872541 -0.107552 0.351818 -5.770559 6.997931 54.139682 0.000000 0.000000 0.000000
-48.956540 28.307791 328.253707 -0.365603 -0.476799 -43.568599 -0.063718 0.597445 43.567410 -0.000000 0.000000 0.000000 -0.484045 -3.709198 1.100871 0.000000 0.000000 0.000000 -0.525960 -5.489832 0.817609 2.400288 9.350665 1.097299 -1.558663 -6.061226 -5.184062 0.004921 4.486690 4.648861 0.000000 0.000000 0.000000 0.000000 0.000000 0.000000 1.233743 1.114855 0.275783 -2.654273 -1.813522 0.979474 0.341410 -1.606922 1.222161 2.125743 2.473851 -3.607656 0.000000 0.000000 0.000000 0.000000 0.000000 0.000000 0.412348 0.346562 45.072702 -0.158552 0.514224 -1.508502 49.654430 32.517138 -40.877193 0.000000 0.000000 0.000000 -0.063718 0.597445 43.567410 -0.870124 -0.134190 0.353444 -6.699701 7.321700 59.514139 0.000000 0.000000 0.000000
-48.955797 28.306454 328.239029 -0.433266 -0.480095 -43.423274 -0.015321 0.646507 43.421545 -0.000000 0.000000 0.000000 -0.391675 -4.273946 1.265524 0.000000 0.000000 0.000000 -0.610392 -5.975624 0.915645 2.840640 10.330684 1.120713 -1.616363 -6.167807 -5.480056 -0.135144 4.064079 4.548581 0.000000 0.000000 0.000000 0.000000 0.000000 0.000000 1.197268 1.065618 0.261853 -2.648241 -1.721404 1.091485 0.549554 -1.076361 0.597864 2.360949 1.942897 -3.547265 0.000000 0.000000 0.000000 0.000000 0.000000 0.000000 0.478329 0.409707 45.013926 -0.181466 0.516541 -1.596113 47.277167 32.090991 -38.778573 0.000000 0.000000 0.000000 0.356773 1.219590 43.952076 -1.429372 -0.363852 -0.220297 -6.567914 7.484876 58.425415 0.000000 0.000000 0.000000
